<svg width="800" height="600" viewBox="0 0 800 600" fill="none" xmlns="http://www.w3.org/2000/svg">
<path d="M394.183 397.103L32 213.374L249.216 31.4131L394.183 397.103Z" fill="#7EF4C3"/>
<path d="M406.083 397.103L768.266 213.374L551.05 31.4131L406.083 397.103Z" fill="#F33D96"/>
<path d="M399.674 394.812L255.047 29L544.3 29L399.674 394.812Z" fill="#FDBF45"/>
<path fill-rule="evenodd" clip-rule="evenodd" d="M398.984 423.382L399.643 423.049C400.563 423.01 401.404 422.561 401.945 421.886L663.674 289.675V447.068L400.674 570.78L137.674 447.068V290.412L398.056 422.695C398.41 422.875 398.77 422.983 399.124 423.027L398.984 423.382Z" fill="#902225"/>
<path d="M327.871 286.062C299.648 286.062 276.602 308.094 276.602 335.281C276.602 362.469 299.551 384.5 327.871 384.5C356.094 384.5 379.141 362.469 379.141 335.281C379.141 308.094 356.094 286.062 327.871 286.062ZM327.871 361.437C312.832 361.437 300.527 349.719 300.527 335.187C300.527 320.656 312.734 308.937 327.871 308.937C342.91 308.937 355.215 320.656 355.215 335.187C355.215 349.719 342.91 361.437 327.871 361.437Z" fill="white"/>
<path d="M522.891 335.188C522.891 308.094 499.941 285.969 471.621 285.969C443.398 285.969 420.352 308 420.352 335.188C420.352 362.375 443.301 384.406 471.621 384.406C499.941 384.406 522.891 362.281 522.891 335.188ZM471.621 361.438C456.582 361.438 444.277 349.719 444.277 335.188C444.277 320.656 456.484 308.938 471.621 308.938C486.66 308.938 498.965 320.656 498.965 335.188C498.965 349.719 486.758 361.438 471.621 361.438Z" fill="white"/>
<path d="M606.582 213.031C598.379 166.156 558.047 131.469 508.34 128.562L506.289 128.187C505.605 128.094 504.922 128 504.238 128H297.695C245.645 128 201.602 163.719 193.008 212.75L161.465 375.031C160.488 379.437 160 383.844 160 388.25C160 423.688 189.98 452.469 226.895 452.469C249.16 452.469 269.961 441.875 282.168 424.438L297.402 404.188C301.309 399.031 300.039 391.906 294.668 388.156C289.297 384.406 281.875 385.625 277.969 390.781L262.539 411.313C254.531 422.75 241.152 429.594 226.895 429.594C203.164 429.594 183.926 411.031 183.926 388.344C183.926 385.531 184.219 382.625 184.902 379.531L216.445 216.875C223.086 178.719 257.266 151.062 297.598 151.062H503.262L504.922 151.344C505.41 151.438 505.801 151.437 506.289 151.531C544.375 153.5 576.602 181.062 582.949 217.062L614.59 379.719C615.176 382.531 615.469 385.438 615.469 388.25C615.469 411.031 596.133 429.5 572.5 429.5C558.145 429.5 544.863 422.656 536.563 410.938L520.156 389.188C516.25 384.031 508.828 382.906 503.457 386.563C498.086 390.313 496.914 397.437 500.723 402.594L516.836 424.063C529.336 441.781 550.039 452.375 572.305 452.375C609.219 452.375 639.199 423.594 639.199 388.156C639.199 383.75 638.711 379.25 637.832 375.125L606.582 213.031Z" fill="white"/>
<path d="M461.758 236.281C470.711 236.281 477.969 229.314 477.969 220.719C477.969 212.124 470.711 205.156 461.758 205.156C452.805 205.156 445.547 212.124 445.547 220.719C445.547 229.314 452.805 236.281 461.758 236.281Z" fill="white"/>
<path d="M528.066 236.281C537.019 236.281 544.277 229.314 544.277 220.719C544.277 212.124 537.019 205.156 528.066 205.156C519.113 205.156 511.855 212.124 511.855 220.719C511.855 229.314 519.113 236.281 528.066 236.281Z" fill="white"/>
<path d="M305.703 174.594C299.062 174.594 293.691 179.75 293.691 186.125V206.844H272.109C265.469 206.844 260.098 212 260.098 218.375C260.098 224.75 265.469 229.906 272.109 229.906H293.691V250.625C293.691 257 299.062 262.156 305.703 262.156C312.344 262.156 317.715 257 317.715 250.625V229.906H339.297C345.938 229.906 351.309 224.75 351.309 218.375C351.309 212 345.938 206.844 339.297 206.844H317.715V186.125C317.715 179.75 312.344 174.594 305.703 174.594Z" fill="white"/>
<path d="M494.863 268.062C503.816 268.062 511.074 261.095 511.074 252.5C511.074 243.905 503.816 236.938 494.863 236.938C485.91 236.938 478.652 243.905 478.652 252.5C478.652 261.095 485.91 268.062 494.863 268.062Z" fill="white"/>
<path d="M494.863 204.406C503.816 204.406 511.074 197.439 511.074 188.844C511.074 180.249 503.816 173.281 494.863 173.281C485.91 173.281 478.652 180.249 478.652 188.844C478.652 197.439 485.91 204.406 494.863 204.406Z" fill="white"/>
</svg>
