<svg width="960" height="646" viewBox="0 0 960 646" fill="none" xmlns="http://www.w3.org/2000/svg">
<path d="M480.183 397.103L118 213.374L335.216 31.4131L480.183 397.103Z" fill="#7EF4C3"/>
<path d="M492.083 397.103L854.266 213.374L637.05 31.4131L492.083 397.103Z" fill="#F33D96"/>
<path d="M485.674 394.812L341.047 29L630.3 29L485.674 394.812Z" fill="#FDBF45"/>
<path fill-rule="evenodd" clip-rule="evenodd" d="M484.984 423.382L485.643 423.049C486.563 423.01 487.404 422.561 487.945 421.886L749.674 289.675V447.068L486.674 570.78L223.674 447.068V290.412L484.056 422.695C484.41 422.875 484.77 422.983 485.124 423.027L484.984 423.382Z" fill="#902225"/>
<path d="M11.6 597V453H143V469.2H27.8V516.8H120.4V533.2H27.8V580.8H143V597H11.6ZM164.325 597V453H186.525L292.125 578.6V453H308.325V597H286.125L180.525 471.4V597H164.325ZM331.131 597V453H462.531V469.2H347.331V516.8H439.931V533.2H347.331V580.8H462.531V597H331.131ZM484.456 597V453H598.256C602.656 453 606.656 454.067 610.256 456.2C613.99 458.333 616.923 461.267 619.056 465C621.19 468.6 622.256 472.6 622.256 477V507.6C622.256 509.467 621.99 511.333 621.456 513.2C621.056 514.933 620.456 516.6 619.656 518.2C622.59 522.6 624.79 526.4 626.256 529.6C627.723 532.8 628.456 536.067 628.456 539.4V573C628.456 577.4 627.39 581.467 625.256 585.2C623.123 588.8 620.19 591.667 616.456 593.8C612.856 595.933 608.856 597 604.456 597H484.456ZM508.456 580.8H604.456C606.59 580.8 608.39 580.067 609.856 578.6C611.456 577 612.256 575.133 612.256 573V539.4C612.256 537.267 611.456 535.467 609.856 534C608.39 532.4 606.59 531.6 604.456 531.6H508.456C506.323 531.6 504.456 532.4 502.856 534C501.39 535.467 500.656 537.267 500.656 539.4V573C500.656 575.133 501.39 577 502.856 578.6C504.456 580.067 506.323 580.8 508.456 580.8ZM508.456 515.4H598.256C600.39 515.4 602.19 514.667 603.656 513.2C605.123 511.6 605.856 509.733 605.856 507.6V477C605.856 474.867 605.123 473.067 603.656 471.6C602.19 470 600.39 469.2 598.256 469.2H508.456C506.323 469.2 504.456 470 502.856 471.6C501.39 473.067 500.656 474.867 500.656 477V507.6C500.656 509.733 501.39 511.6 502.856 513.2C504.456 514.667 506.323 515.4 508.456 515.4ZM673.863 597C669.463 597 665.396 595.933 661.663 593.8C658.063 591.667 655.196 588.8 653.063 585.2C650.929 581.467 649.863 577.4 649.863 573V477C649.863 472.6 650.929 468.6 653.063 465C655.196 461.267 658.063 458.333 661.663 456.2C665.396 454.067 669.463 453 673.863 453H769.863C774.263 453 778.263 454.067 781.863 456.2C785.596 458.333 788.529 461.267 790.663 465C792.796 468.6 793.863 472.6 793.863 477V573C793.863 577.4 792.796 581.467 790.663 585.2C788.529 588.8 785.596 591.667 781.863 593.8C778.263 595.933 774.263 597 769.863 597H673.863ZM673.863 580.8H769.863C771.996 580.8 773.796 580.067 775.263 578.6C776.863 577 777.663 575.133 777.663 573V477C777.663 474.867 776.863 473.067 775.263 471.6C773.796 470 771.996 469.2 769.863 469.2H673.863C671.729 469.2 669.863 470 668.263 471.6C666.796 473.067 666.063 474.867 666.063 477V573C666.063 575.133 666.796 577 668.263 578.6C669.863 580.067 671.729 580.8 673.863 580.8ZM806.075 597V596.8L866.475 525L806.075 453.2V453H826.875L877.075 512.4L927.075 453H947.875V453.2L887.475 525L948.075 596.8V597H927.075L877.075 537.6L826.875 597H806.075Z" fill="white"/>
<path d="M413.871 264.062C385.648 264.062 362.602 286.094 362.602 313.281C362.602 340.469 385.551 362.5 413.871 362.5C442.094 362.5 465.141 340.469 465.141 313.281C465.141 286.094 442.094 264.062 413.871 264.062ZM413.871 339.437C398.832 339.437 386.527 327.719 386.527 313.187C386.527 298.656 398.734 286.937 413.871 286.937C428.91 286.937 441.215 298.656 441.215 313.187C441.215 327.719 428.91 339.437 413.871 339.437Z" fill="white"/>
<path d="M608.891 313.188C608.891 286.094 585.941 263.969 557.621 263.969C529.398 263.969 506.352 286 506.352 313.188C506.352 340.375 529.301 362.406 557.621 362.406C585.941 362.406 608.891 340.281 608.891 313.188ZM557.621 339.438C542.582 339.438 530.277 327.719 530.277 313.188C530.277 298.656 542.484 286.938 557.621 286.938C572.66 286.938 584.965 298.656 584.965 313.188C584.965 327.719 572.758 339.438 557.621 339.438Z" fill="white"/>
<path d="M692.582 191.031C684.379 144.156 644.047 109.469 594.34 106.562L592.289 106.187C591.605 106.094 590.922 106 590.238 106H383.695C331.645 106 287.602 141.719 279.008 190.75L247.465 353.031C246.488 357.437 246 361.844 246 366.25C246 401.688 275.98 430.469 312.895 430.469C335.16 430.469 355.961 419.875 368.168 402.438L383.402 382.188C387.309 377.031 386.039 369.906 380.668 366.156C375.297 362.406 367.875 363.625 363.969 368.781L348.539 389.313C340.531 400.75 327.152 407.594 312.895 407.594C289.164 407.594 269.926 389.031 269.926 366.344C269.926 363.531 270.219 360.625 270.902 357.531L302.445 194.875C309.086 156.719 343.266 129.062 383.598 129.062H589.262L590.922 129.344C591.41 129.438 591.801 129.437 592.289 129.531C630.375 131.5 662.602 159.062 668.949 195.062L700.59 357.719C701.176 360.531 701.469 363.438 701.469 366.25C701.469 389.031 682.133 407.5 658.5 407.5C644.145 407.5 630.863 400.656 622.563 388.938L606.156 367.188C602.25 362.031 594.828 360.906 589.457 364.563C584.086 368.313 582.914 375.437 586.723 380.594L602.836 402.063C615.336 419.781 636.039 430.375 658.305 430.375C695.219 430.375 725.199 401.594 725.199 366.156C725.199 361.75 724.711 357.25 723.832 353.125L692.582 191.031Z" fill="white"/>
<path d="M547.758 214.281C556.711 214.281 563.969 207.314 563.969 198.719C563.969 190.124 556.711 183.156 547.758 183.156C538.805 183.156 531.547 190.124 531.547 198.719C531.547 207.314 538.805 214.281 547.758 214.281Z" fill="white"/>
<path d="M614.066 214.281C623.019 214.281 630.277 207.314 630.277 198.719C630.277 190.124 623.019 183.156 614.066 183.156C605.113 183.156 597.855 190.124 597.855 198.719C597.855 207.314 605.113 214.281 614.066 214.281Z" fill="white"/>
<path d="M391.703 152.594C385.062 152.594 379.691 157.75 379.691 164.125V184.844H358.109C351.469 184.844 346.098 190 346.098 196.375C346.098 202.75 351.469 207.906 358.109 207.906H379.691V228.625C379.691 235 385.062 240.156 391.703 240.156C398.344 240.156 403.715 235 403.715 228.625V207.906H425.297C431.938 207.906 437.309 202.75 437.309 196.375C437.309 190 431.938 184.844 425.297 184.844H403.715V164.125C403.715 157.75 398.344 152.594 391.703 152.594Z" fill="white"/>
<path d="M580.863 246.062C589.816 246.062 597.074 239.095 597.074 230.5C597.074 221.905 589.816 214.938 580.863 214.938C571.91 214.938 564.652 221.905 564.652 230.5C564.652 239.095 571.91 246.062 580.863 246.062Z" fill="white"/>
<path d="M580.863 182.406C589.816 182.406 597.074 175.439 597.074 166.844C597.074 158.249 589.816 151.281 580.863 151.281C571.91 151.281 564.652 158.249 564.652 166.844C564.652 175.439 571.91 182.406 580.863 182.406Z" fill="white"/>
</svg>
