<svg width="1724" height="819" viewBox="0 0 1724 819" fill="none" xmlns="http://www.w3.org/2000/svg">
<g opacity="0.7">
<path d="M624.965 179.928L569.291 179.295C563.411 178.919 557.405 176.582 552.855 172.032C548.455 167.633 545.927 161.722 545.827 155.6C545.727 149.479 548.062 143.648 552.32 139.39L554.613 137.097L631.793 78.8754C654.974 59.6753 689.874 61.3663 712.245 83.7374L797.558 169.051C819.929 191.422 821.62 226.321 802.42 249.503L744.199 326.682L741.906 328.976C737.648 333.233 731.817 335.569 725.695 335.469C719.574 335.368 713.663 332.84 709.263 328.441C704.713 323.89 702.377 317.885 702.001 312.005L701.368 256.331L624.965 179.928ZM689.158 97.3447L670.811 115.692L651.852 96.7332L642.679 105.907L661.637 124.865L643.29 143.212L652.77 152.692L671.117 134.345L690.075 153.303L699.249 144.13L680.29 125.171L698.637 106.824L689.158 97.3447ZM779.211 187.398C777.326 185.512 774.792 184.429 772.169 184.386C769.545 184.343 767.046 185.344 765.222 187.169C763.397 188.993 762.396 191.492 762.439 194.116C762.482 196.739 763.565 199.273 765.451 201.158C767.337 203.044 769.87 204.127 772.493 204.17C775.117 204.213 777.616 203.212 779.441 201.388C781.265 199.563 782.266 197.064 782.223 194.44C782.18 191.817 781.097 189.283 779.211 187.398ZM746.569 186.863C744.683 184.977 742.15 183.894 739.527 183.851C736.903 183.808 734.404 184.809 732.579 186.633C730.755 188.458 729.754 190.957 729.797 193.581C729.84 196.204 730.923 198.738 732.809 200.623C734.694 202.509 737.227 203.592 739.851 203.635C742.474 203.678 744.973 202.677 746.798 200.852C748.623 199.028 749.624 196.529 749.581 193.905C749.538 191.282 748.454 188.748 746.569 186.863ZM779.746 220.04C777.861 218.155 775.328 217.071 772.704 217.028C770.08 216.985 767.581 217.986 765.757 219.811C763.932 221.636 762.931 224.135 762.974 226.758C763.017 229.382 764.101 231.915 765.986 233.801C767.872 235.686 770.405 236.77 773.028 236.813C775.652 236.856 778.151 235.855 779.976 234.03C781.8 232.205 782.801 229.706 782.758 227.083C782.715 224.459 781.632 221.926 779.746 220.04ZM747.104 219.505C745.218 217.62 742.685 216.536 740.062 216.493C737.438 216.45 734.939 217.451 733.114 219.276C731.29 221.101 730.289 223.6 730.332 226.223C730.375 228.847 731.458 231.38 733.344 233.265C735.229 235.151 737.762 236.234 740.386 236.277C743.01 236.32 745.509 235.32 747.333 233.495C749.158 231.67 750.159 229.171 750.116 226.548C750.073 223.924 748.989 221.391 747.104 219.505Z" fill="white"/>
<path d="M219.829 498.785L318.56 597.516C334.271 613.227 343.149 634.485 343.241 656.612C343.333 678.739 334.631 699.923 319.05 715.504C303.469 731.085 282.284 739.787 260.158 739.695C238.031 739.603 216.773 730.725 201.062 715.014C183.488 697.44 175.329 674.203 176.513 651.299L166.047 640.833C143.143 642.016 119.906 633.858 102.331 616.283C86.6204 600.572 77.7424 579.315 77.6506 557.188C77.5588 535.061 86.2606 513.877 101.842 498.296C117.423 482.715 138.607 474.013 160.734 474.105C182.861 474.196 204.118 483.074 219.829 498.785ZM180.582 518.287L160.999 537.87L141.253 518.124L121.67 537.707L141.416 557.453L121.833 577.036L141.579 596.782L161.162 577.199L180.908 596.945L200.491 577.362L180.745 557.616L200.328 538.033L180.582 518.287ZM245.002 641.456C241.074 637.528 235.76 635.308 230.228 635.286C224.696 635.263 219.4 637.438 215.505 641.333C211.61 645.229 209.434 650.525 209.457 656.056C209.48 661.588 211.699 666.902 215.627 670.83C219.555 674.758 224.869 676.977 230.401 677C235.933 677.023 241.229 674.848 245.124 670.953C249.019 667.057 251.195 661.761 251.172 656.23C251.149 650.698 248.929 645.384 245.002 641.456ZM303.995 641.701C300.068 637.773 294.753 635.553 289.222 635.53C283.69 635.507 278.394 637.683 274.499 641.578C270.603 645.473 268.428 650.77 268.451 656.301C268.474 661.833 270.693 667.147 274.621 671.075C278.549 675.003 283.863 677.222 289.395 677.245C294.927 677.268 300.223 675.093 304.118 671.197C308.013 667.302 310.189 662.006 310.166 656.474C310.143 650.943 307.923 645.628 303.995 641.701Z" fill="white"/>
<path d="M253.056 20.7978C241.618 9.35902 222.757 9.50148 211.144 21.1144L21.1144 211.144C9.39589 222.863 9.359 241.618 20.7978 253.056L93.5902 325.849C122.291 354.55 169.233 354.195 198.371 325.057L356.729 166.699C368.342 155.086 368.588 136.33 357.045 124.787L253.056 20.7978ZM231.784 62.8684L314.975 146.06L241.074 219.96L157.883 136.769L231.784 62.8684ZM136.61 178.839L147.009 189.238L125.895 210.353L146.693 231.15L136.136 241.708L115.338 220.91L94.2234 242.024L83.8244 231.625L104.939 210.511L84.141 189.713L94.6982 179.156L115.496 199.954L136.61 178.839ZM198.846 262.189C204.565 267.908 204.494 277.339 198.687 283.145C192.881 288.951 183.451 289.023 177.731 283.303C172.012 277.584 172.083 268.154 177.89 262.347C183.696 256.541 193.126 256.47 198.846 262.189ZM156.933 262.505C162.653 268.225 162.582 277.655 156.775 283.462C150.969 289.268 141.538 289.339 135.819 283.62C130.1 277.9 130.171 268.47 135.977 262.664C141.784 256.857 151.214 256.786 156.933 262.505Z" fill="white"/>
<path d="M1598.51 461.302C1587.07 449.863 1568.21 450.006 1556.6 461.619L1366.57 651.648C1354.85 663.367 1354.81 682.122 1366.25 693.561L1439.04 766.353C1467.75 795.054 1514.69 794.7 1543.82 765.562L1702.18 607.204C1713.8 595.591 1714.04 576.834 1702.5 565.291L1598.51 461.302ZM1577.24 503.373L1660.43 586.564L1586.53 660.464L1503.34 577.273L1577.24 503.373ZM1482.06 619.344L1492.46 629.743L1471.35 650.857L1492.15 671.655L1481.59 682.212L1460.79 661.414L1439.68 682.529L1429.28 672.13L1450.39 651.015L1429.59 630.217L1440.15 619.66L1460.95 640.458L1482.06 619.344ZM1544.3 702.693C1550.02 708.413 1549.95 717.843 1544.14 723.649C1538.33 729.456 1528.9 729.527 1523.19 723.808C1517.47 718.088 1517.54 708.658 1523.34 702.852C1529.15 697.045 1538.58 696.974 1544.3 702.693ZM1502.39 703.01C1508.11 708.729 1508.04 718.16 1502.23 723.966C1496.42 729.772 1486.99 729.844 1481.27 724.124C1475.55 718.405 1475.62 708.975 1481.43 703.168C1487.24 697.362 1496.67 697.29 1502.39 703.01Z" fill="white"/>
<path d="M365.372 428.655L395.796 398.231L365.372 367.806C361.337 363.772 359.071 358.3 359.071 352.594C359.071 346.888 361.337 341.416 365.372 337.382L395.796 306.957C399.831 302.922 405.303 300.656 411.009 300.656C416.714 300.656 422.186 302.922 426.221 306.957L456.645 337.382L487.07 306.957C491.105 302.922 496.577 300.656 502.282 300.656C507.988 300.656 513.46 302.922 517.495 306.957L547.919 337.382C551.954 341.416 554.22 346.888 554.22 352.594C554.22 358.3 551.954 363.772 547.919 367.806L517.495 398.231L547.919 428.655C551.954 432.69 554.22 438.162 554.22 443.868C554.22 449.573 551.954 455.045 547.919 459.08L517.495 489.504C513.46 493.539 507.988 495.806 502.282 495.806C496.577 495.806 491.105 493.539 487.07 489.504L456.645 459.08L426.221 489.504C422.186 493.539 416.714 495.806 411.009 495.806C405.303 495.806 399.831 493.539 395.796 489.504L365.372 459.08C361.337 455.045 359.071 449.573 359.071 443.868C359.071 438.162 361.337 432.69 365.372 428.655Z" fill="white"/>
<path d="M1499.27 179.928L1443.6 179.295C1437.72 178.919 1431.71 176.582 1427.16 172.032C1422.76 167.633 1420.23 161.722 1420.13 155.6C1420.03 149.479 1422.37 143.648 1426.63 139.39L1428.92 137.097L1506.1 78.8754C1529.28 59.6753 1564.18 61.3663 1586.55 83.7374L1671.86 169.051C1694.24 191.422 1695.93 226.321 1676.73 249.503L1618.5 326.682L1616.21 328.976C1611.95 333.233 1606.12 335.569 1600 335.469C1593.88 335.368 1587.97 332.84 1583.57 328.441C1579.02 323.89 1576.68 317.885 1576.31 312.005L1575.67 256.331L1499.27 179.928ZM1563.46 97.3447L1545.12 115.692L1526.16 96.7332L1516.98 105.907L1535.94 124.865L1517.6 143.212L1527.08 152.692L1545.42 134.345L1564.38 153.303L1573.55 144.13L1554.6 125.171L1572.94 106.824L1563.46 97.3447ZM1653.52 187.398C1651.63 185.512 1649.1 184.429 1646.47 184.386C1643.85 184.343 1641.35 185.344 1639.53 187.169C1637.7 188.993 1636.7 191.492 1636.74 194.116C1636.79 196.739 1637.87 199.273 1639.76 201.158C1641.64 203.044 1644.18 204.127 1646.8 204.17C1649.42 204.213 1651.92 203.212 1653.75 201.388C1655.57 199.563 1656.57 197.064 1656.53 194.44C1656.49 191.817 1655.4 189.283 1653.52 187.398ZM1620.87 186.863C1618.99 184.977 1616.46 183.894 1613.83 183.851C1611.21 183.808 1608.71 184.809 1606.88 186.633C1605.06 188.458 1604.06 190.957 1604.1 193.581C1604.15 196.204 1605.23 198.738 1607.11 200.623C1609 202.509 1611.53 203.592 1614.16 203.635C1616.78 203.678 1619.28 202.677 1621.1 200.852C1622.93 199.028 1623.93 196.529 1623.89 193.905C1623.84 191.282 1622.76 188.748 1620.87 186.863ZM1654.05 220.04C1652.17 218.155 1649.63 217.071 1647.01 217.028C1644.39 216.985 1641.89 217.986 1640.06 219.811C1638.24 221.636 1637.24 224.135 1637.28 226.758C1637.32 229.382 1638.41 231.915 1640.29 233.801C1642.18 235.686 1644.71 236.77 1647.33 236.813C1649.96 236.856 1652.46 235.855 1654.28 234.03C1656.11 232.205 1657.11 229.706 1657.06 227.083C1657.02 224.459 1655.94 221.926 1654.05 220.04ZM1621.41 219.505C1619.52 217.62 1616.99 216.536 1614.37 216.493C1611.74 216.45 1609.24 217.451 1607.42 219.276C1605.6 221.101 1604.59 223.6 1604.64 226.223C1604.68 228.847 1605.76 231.38 1607.65 233.265C1609.53 235.151 1612.07 236.234 1614.69 236.277C1617.32 236.32 1619.81 235.32 1621.64 233.495C1623.46 231.67 1624.46 229.171 1624.42 226.548C1624.38 223.924 1623.3 221.391 1621.41 219.505Z" fill="white"/>
<path d="M1094.14 498.785L1192.87 597.516C1208.58 613.227 1217.46 634.485 1217.55 656.612C1217.64 678.739 1208.94 699.923 1193.36 715.504C1177.77 731.085 1156.59 739.787 1134.46 739.695C1112.34 739.603 1091.08 730.725 1075.37 715.014C1057.79 697.44 1049.64 674.203 1050.82 651.299L1040.35 640.833C1017.45 642.016 994.211 633.858 976.637 616.283C960.926 600.572 952.048 579.315 951.956 557.188C951.864 535.061 960.566 513.877 976.147 498.296C991.729 482.715 1012.91 474.013 1035.04 474.105C1057.17 474.196 1078.42 483.074 1094.14 498.785ZM1054.89 518.287L1035.3 537.87L1015.56 518.124L995.975 537.707L1015.72 557.453L996.138 577.036L1015.88 596.782L1035.47 577.199L1055.21 596.945L1074.8 577.362L1055.05 557.616L1074.63 538.033L1054.89 518.287ZM1119.31 641.456C1115.38 637.528 1110.07 635.308 1104.53 635.286C1099 635.263 1093.71 637.438 1089.81 641.333C1085.92 645.229 1083.74 650.525 1083.76 656.056C1083.79 661.588 1086.01 666.902 1089.93 670.83C1093.86 674.758 1099.17 676.977 1104.71 677C1110.24 677.023 1115.53 674.848 1119.43 670.953C1123.33 667.057 1125.5 661.761 1125.48 656.23C1125.45 650.698 1123.24 645.384 1119.31 641.456ZM1178.3 641.701C1174.37 637.773 1169.06 635.553 1163.53 635.53C1158 635.507 1152.7 637.683 1148.8 641.578C1144.91 645.473 1142.73 650.77 1142.76 656.301C1142.78 661.833 1145 667.147 1148.93 671.075C1152.85 675.003 1158.17 677.222 1163.7 677.245C1169.23 677.268 1174.53 675.093 1178.42 671.197C1182.32 667.302 1184.49 662.006 1184.47 656.474C1184.45 650.943 1182.23 645.628 1178.3 641.701Z" fill="white"/>
<path d="M1127.36 20.7978C1115.92 9.35902 1097.06 9.50148 1085.45 21.1144L895.42 211.144C883.702 222.863 883.665 241.618 895.104 253.056L967.896 325.849C996.597 354.55 1043.54 354.195 1072.68 325.057L1231.03 166.699C1242.65 155.086 1242.89 136.33 1231.35 124.787L1127.36 20.7978ZM1106.09 62.8684L1189.28 146.06L1115.38 219.96L1032.19 136.769L1106.09 62.8684ZM1010.92 178.839L1021.32 189.238L1000.2 210.353L1021 231.15L1010.44 241.708L989.643 220.91L968.529 242.024L958.13 231.625L979.245 210.511L958.447 189.713L969.004 179.156L989.802 199.954L1010.92 178.839ZM1073.15 262.189C1078.87 267.908 1078.8 277.339 1072.99 283.145C1067.19 288.951 1057.76 289.023 1052.04 283.303C1046.32 277.584 1046.39 268.154 1052.2 262.347C1058 256.541 1067.43 256.47 1073.15 262.189ZM1031.24 262.505C1036.96 268.225 1036.89 277.655 1031.08 283.462C1025.27 289.268 1015.84 289.339 1010.12 283.62C1004.41 277.9 1004.48 268.47 1010.28 262.664C1016.09 256.857 1025.52 256.786 1031.24 262.505Z" fill="white"/>
<path d="M1239.68 428.655L1270.1 398.231L1239.68 367.806C1235.64 363.772 1233.38 358.3 1233.38 352.594C1233.38 346.888 1235.64 341.416 1239.68 337.382L1270.1 306.957C1274.14 302.922 1279.61 300.656 1285.31 300.656C1291.02 300.656 1296.49 302.922 1300.53 306.957L1330.95 337.382L1361.38 306.957C1365.41 302.922 1370.88 300.656 1376.59 300.656C1382.29 300.656 1387.77 302.922 1391.8 306.957L1422.22 337.382C1426.26 341.416 1428.53 346.888 1428.53 352.594C1428.53 358.3 1426.26 363.772 1422.22 367.806L1391.8 398.231L1422.22 428.655C1426.26 432.69 1428.53 438.162 1428.53 443.868C1428.53 449.573 1426.26 455.045 1422.22 459.08L1391.8 489.504C1387.77 493.539 1382.29 495.806 1376.59 495.806C1370.88 495.806 1365.41 493.539 1361.38 489.504L1330.95 459.08L1300.53 489.504C1296.49 493.539 1291.02 495.806 1285.31 495.806C1279.61 495.806 1274.14 493.539 1270.1 489.504L1239.68 459.08C1235.64 455.045 1233.38 449.573 1233.38 443.868C1233.38 438.162 1235.64 432.69 1239.68 428.655Z" fill="white"/>
<path d="M662.234 652.738L692.658 622.313L662.234 591.889C658.199 587.854 655.932 582.382 655.932 576.677C655.932 570.971 658.199 565.499 662.234 561.464L692.658 531.04C696.693 527.005 702.165 524.739 707.87 524.739C713.576 524.739 719.048 527.005 723.083 531.04L753.507 561.464L783.932 531.04C787.966 527.005 793.438 524.739 799.144 524.739C804.85 524.739 810.322 527.005 814.356 531.04L844.781 561.464C848.815 565.499 851.082 570.971 851.082 576.677C851.082 582.382 848.815 587.854 844.781 591.889L814.356 622.313L844.781 652.738C848.815 656.773 851.082 662.245 851.082 667.95C851.082 673.656 848.815 679.128 844.781 683.163L814.356 713.587C810.322 717.622 804.85 719.888 799.144 719.888C793.438 719.888 787.966 717.622 783.932 713.587L753.507 683.163L723.083 713.587C719.048 717.622 713.576 719.888 707.87 719.888C702.165 719.888 696.693 717.622 692.658 713.587L662.234 683.163C658.199 679.128 655.932 673.656 655.932 667.95C655.932 662.245 658.199 656.773 662.234 652.738Z" fill="white"/>
</g>
</svg>
